HIERARCHY
ROOT Hips
{
	OFFSET 0.00 0.00 0.00
	CHANNELS 6 Xposition Yposition Zposition Zrotation Xrotation Yrotation
	JOINT Spine
	{
		OFFSET 0.00 10.00 0.00
		CHANNELS 3 Zrotation Xrotation Yrotation
		JOINT Spine1
		{
			OFFSET 0.00 10.00 0.00
			CHANNELS 3 Zrotation Xrotation Yrotation
			JOINT Spine2
			{
				OFFSET 0.00 10.00 0.00
				CHANNELS 3 Zrotation Xrotation Yrotation
				JOINT Neck
				{
					OFFSET 0.00 10.00 0.00
					CHANNELS 3 Zrotation Xrotation Yrotation
					JOINT Head
					{
						OFFSET 0.00 10.00 0.00
						CHANNELS 3 Zrotation Xrotation Yrotation
						End Site
						{
							OFFSET 0.00 10.00 0.00
						}
					}
				}
				JOINT LeftArm
				{
					OFFSET 15.00 0.00 0.00
					CHANNELS 3 Zrotation Xrotation Yrotation
					JOINT LeftForeArm
					{
						OFFSET 25.00 0.00 0.00
						CHANNELS 3 Zrotation Xrotation Yrotation
						JOINT LeftHand
						{
							OFFSET 20.00 0.00 0.00
							CHANNELS 3 Zrotation Xrotation Yrotation
							End Site
							{
								OFFSET 10.00 0.00 0.00
							}
						}
					}
				}
				JOINT RightArm
				{
					OFFSET -15.00 0.00 0.00
					CHANNELS 3 Zrotation Xrotation Yrotation
					JOINT RightForeArm
					{
						OFFSET -25.00 0.00 0.00
						CHANNELS 3 Zrotation Xrotation Yrotation
						JOINT RightHand
						{
							OFFSET -20.00 0.00 0.00
							CHANNELS 3 Zrotation Xrotation Yrotation
							End Site
							{
								OFFSET -10.00 0.00 0.00
							}
						}
					}
				}
			}
		}
	}
	JOINT LeftUpLeg
	{
		OFFSET 8.00 -15.00 0.00
		CHANNELS 3 Zrotation Xrotation Yrotation
		JOINT LeftLeg
		{
			OFFSET 0.00 -35.00 0.00
			CHANNELS 3 Zrotation Xrotation Yrotation
			JOINT LeftFoot
			{
				OFFSET 0.00 -35.00 0.00
				CHANNELS 3 Zrotation Xrotation Yrotation
				JOINT LeftToeBase
				{
					OFFSET 0.00 -5.00 10.00
					CHANNELS 3 Zrotation Xrotation Yrotation
					End Site
					{
						OFFSET 0.00 -5.00 10.00
					}
				}
			}
		}
	}
	JOINT RightUpLeg
	{
		OFFSET -8.00 -15.00 0.00
		CHANNELS 3 Zrotation Xrotation Yrotation
		JOINT RightLeg
		{
			OFFSET 0.00 -35.00 0.00
			CHANNELS 3 Zrotation Xrotation Yrotation
			JOINT RightFoot
			{
				OFFSET 0.00 -35.00 0.00
				CHANNELS 3 Zrotation Xrotation Yrotation
				JOINT RightToeBase
				{
					OFFSET 0.00 -5.00 10.00
					CHANNELS 3 Zrotation Xrotation Yrotation
					End Site
					{
						OFFSET 0.00 -5.00 10.00
					}
				}
			}
		}
	}
}
MOTION
Frames: 7
Frame Time: 0.034483
-0.0762 0.1648 -0.0913 -171.9966 65.6370 5.1664 11.4062 14.5072 1.4565 11.4062 14.5072 1.4565 11.4062 14.5072 1.4565 -28.4481 51.4982 -13.9410 -76.2444 45.2782 -36.2443 60.0622 -17.6811 30.1180 -166.6900 158.1094 62.2075 -139.7505 77.8348 32.9630 -73.1521 3.4390 4.6335 -46.4444 -9.4287 -21.7596 -177.9885 -177.1980 -71.3432 -0.4477 -7.5323 0.0295 -6.1714 19.3226 -1.0516 25.5880 18.8617 4.3203 -0.6209 35.8862 1.9172 16.2547 4.1005 0.5858 18.9081 20.9842 3.5327 26.8720 -32.1536 -7.8771 -1.4004 3.0599 49.1763
-0.0761 0.1647 -0.0927 -171.9487 60.0320 4.6565 11.3393 15.7419 1.5726 11.3393 15.7419 1.5726 11.3393 15.7419 1.5726 -27.8501 52.6946 -14.0011 -76.9939 44.5662 -36.1039 60.8386 -16.4360 27.6378 158.2807 -132.8466 47.4595 -153.0141 90.0371 27.0028 -72.9224 5.4281 7.3416 -48.8409 -10.7226 -23.3558 177.8731 176.8093 -67.3661 -0.4756 -7.6323 0.0317 -6.0807 19.4648 -1.0439 25.7263 18.9752 4.3710 -1.3656 37.2671 4.0485 16.2264 4.0216 0.5735 19.7400 20.5968 3.6215 27.7842 -31.9025 -8.0873 -1.3419 3.0055 48.1134
-0.0768 0.1779 -0.0748 -171.2775 47.1061 3.8082 11.3109 16.0003 1.5948 11.3109 16.0003 1.5948 11.3109 16.0003 1.5948 -26.9448 53.8082 -13.8619 -75.7679 45.5204 -36.1552 60.1476 -16.3563 27.8760 143.4501 -109.6503 50.2130 -150.4087 92.7221 30.9641 -72.2611 10.9971 15.0237 -52.2444 -3.5037 -7.1379 178.6782 177.7135 -60.0589 -0.4058 -8.7449 0.0310 -6.0406 14.8156 -0.7861 25.7136 12.4297 2.8475 -2.0398 34.1971 6.6244 16.1550 4.1782 0.5932 20.1308 19.4125 3.4781 28.6102 -31.4083 -8.2016 -1.8185 4.1932 46.8762
-0.0774 0.1848 -0.0662 -170.9502 40.0048 3.3002 11.1958 16.2202 1.6004 11.1958 16.2202 1.6004 11.1958 16.2202 1.6004 -26.4526 54.1306 -13.6960 -73.9111 47.4769 -36.6142 59.6600 -15.9386 27.4404 125.6065 -90.9172 55.1427 -146.9080 98.0649 37.7768 -72.3280 10.5424 14.3881 -52.5217 -4.6076 -9.3233 178.2569 177.0727 -61.5370 -0.3317 -10.6211 0.0308 -6.1722 9.0797 -0.4906 25.4830 6.8173 1.5433 -1.3823 26.8739 5.7813 15.9164 4.0805 0.5707 20.2959 16.3372 2.9435 27.3723 -33.4432 -8.3685 -0.5523 1.4086 42.8174
-0.0764 0.1816 -0.0661 -170.7480 37.1250 3.1129 11.1501 16.6575 1.6374 11.1501 16.6575 1.6374 11.1501 16.6575 1.6374 -26.1343 53.2654 -13.2781 -74.2007 46.1187 -35.6926 59.3455 -14.1171 24.5221 115.6566 -77.7769 53.8032 -152.2690 112.1722 40.3202 -71.5261 9.9546 13.7891 -55.3103 -7.0025 -13.3196 173.2406 168.9187 -62.6647 -0.3580 -10.4825 0.0328 -5.7888 11.0987 -0.5629 25.3099 10.4501 2.3526 -1.0320 27.1324 4.2750 15.6635 3.4750 0.4781 20.6742 14.6609 2.6883 26.7416 -34.3316 -8.3987 0.0498 -0.1312 41.5408
-0.0756 0.1767 -0.0708 -170.8378 38.3049 3.1881 11.0029 16.8757 1.6371 11.0029 16.8757 1.6371 11.0029 16.8757 1.6371 -25.7523 53.3908 -13.1144 -74.3168 45.4018 -35.1824 59.7747 -14.4266 24.8384 101.1535 -63.1518 53.6127 -173.3264 167.3765 55.5897 -71.2077 2.5284 3.5306 -57.1361 -18.2180 -32.8158 164.8042 153.7705 -59.5862 -0.6064 -10.4229 0.0553 -5.1055 10.2708 -0.4591 25.8752 10.6436 2.4517 -0.3726 22.9616 1.8346 15.1206 2.5760 0.3420 20.6940 12.1299 2.2227 25.4694 -36.9020 -8.6242 2.2044 -5.8355 41.3614
-0.0740 0.1538 -0.1125 -172.1307 54.9427 4.0962 10.2139 14.8419 1.3338 10.2139 14.8419 1.3338 10.2139 14.8419 1.3338 -25.6868 56.2052 -13.8831 -66.9394 53.1273 -36.5819 58.6043 1.4004 -2.4950 81.5645 -20.3859 23.5474 157.7696 -142.3761 59.9463 -72.3199 -7.6757 -10.4892 -56.4578 -34.1406 -59.5387 149.7820 121.6306 -51.5976 -0.7021 -11.6700 0.0718 -4.2516 13.3228 -0.4968 28.1516 11.8578 2.9831 0.2366 25.0468 -1.0653 14.9946 -0.6053 -0.0797 20.8614 12.7845 2.3629 24.0708 -36.7075 -8.0918 2.4681 -6.5512 41.2523
